<svg xmlns="http://www.w3.org/2000/svg" width="202.247" height="181.216" viewBox="0 0 202.247 181.216">
    <defs>
        <style>
            .cls-1{fill:#e40019}.cls-2{fill:#e60019}
        </style>
    </defs>
    <g id="Group_2677" transform="translate(-541.42 -172.659)">
        <path id="Path_2931" d="M958.9 283.079l63.335-110.42h27.882l63.15 110.42H1085.2l-48.93-87.339-34.16 61.119s27.513-14.4 59.642-8.309c0 0-44.131-3.878-74.229 34.529-.995.03-28.623 0-28.623 0z" class="cls-1" transform="translate(-391.789)"/>
        <path id="Path_2932" d="M585.388 2320.729l18.812-32.86h8.282l18.752 32.867-8.331-.007-14.534-26-10.147 18.154a29.973 29.973 0 0 1 17.716-2.468 27.061 27.061 0 0 0-22.063 10.31z" class="cls-1" transform="translate(-41.262 -1985.032)"/>
        <path id="Path_2933" d="M3128.489 2320.667l-18.812-32.8h-8.282l-18.758 32.86h8.337l14.534-26 10.146 18.154a29.972 29.972 0 0 0-17.715-2.468 26.9 26.9 0 0 1 22.048 10.256c.055.108 8.502-.002 8.502-.002z" class="cls-1" transform="translate(-2384.822 -1985.032)"/>
        <path id="Path_2934" d="M1358.908 2307.848c-.154-3.268-4.123-5.322-4.123-5.322a1.492 1.492 0 0 1 0-.373c3.17-.56 3.884-4.232 3.884-4.232v-6.22a5.61 5.61 0 0 0-5.262-5.135h-30l-.029 32.971s28.27-.086 28.239-.023c9.231-.406 7.26-11.635 7.291-11.666zm-9.2-15.44a1.867 1.867 0 0 1 1.816 1.938v3.477a1.819 1.819 0 0 1-1.846 1.969c.092-.031-18.617 0-18.617 0l-.031-7.385zm-.308 21.079c0 .031-18.432 0-18.432 0l.031-8.093h18.34s2.185-.246 2.369 2.677v2.923s.399 2.306-2.308 2.492z" class="cls-1" transform="translate(-733.833 -1983.809)"/>
        <path id="Path_2935" d="M1865.756 2287h8l18.955 32.864h-8.462l-14.524-25.479-14.519 25.536-8.236-.016z" class="cls-1" transform="translate(-1225.202 -1984.217)"/>
        <path id="Path_2936" d="M2509.749 2294.031V2288h33.48v3.139l-23.633 23.633h24.064v6.093l-39.449-.062 26.341-26.771z" class="cls-1" transform="translate(-1841.993 -1985.156)"/>
        <path id="Path_2937" d="M1770.661 2772.717l5.937.007.774-2.916-1.631-.308z" class="cls-1" transform="translate(-1153.589 -2437.022)"/>
        <path id="Path_2938" d="M551.335 3003.26l-1.657-.011-1.232-2.061h-4.237l.774-1.284h2.685l-1.278-2.117-3.323 5.472h-1.647l4-6.667a1.725 1.725 0 0 1 .421-.475 1 1 0 0 1 .583-.248.955.955 0 0 1 .582.238 1.693 1.693 0 0 1 .421.485z" class="cls-2" transform="translate(0 -2649.46)"/>
        <path id="Path_2939" d="M873.208 3000.277a3.07 3.07 0 0 1-1.068 2.6 4.563 4.563 0 0 1-2.784.712h-.442a4.563 4.563 0 0 1-2.784-.712 3.07 3.07 0 0 1-1.068-2.6v-4.057h1.284v4.057a1.744 1.744 0 0 0 .917 1.759 5.614 5.614 0 0 0 2.093.27 3.455 3.455 0 0 0 1.834-.378 1.814 1.814 0 0 0 .734-1.651v-4.057h1.284z" class="cls-2" transform="translate(-303.724 -2649.789)"/>
        <path id="Path_2940" d="M1172.652 2997.5h-2.9v6.085h-1.273v-6.085h-2.913v-1.284h7.088z" class="cls-2" transform="translate(-585.732 -2649.789)"/>
        <path id="Path_2941" d="M1451.881 2999.823a3.7 3.7 0 0 1-1.047 2.7 3.571 3.571 0 0 1-2.665 1.068h-2.061a3.575 3.575 0 0 1-2.66-1.068 3.686 3.686 0 0 1-1.052-2.7 3.441 3.441 0 0 1 1.041-2.611 3.711 3.711 0 0 1 2.67-.993h2.061a3.707 3.707 0 0 1 2.676.993 3.451 3.451 0 0 1 1.037 2.611zm-1.273.108a2.356 2.356 0 0 0-.685-1.748 2.385 2.385 0 0 0-1.753-.68h-2.061a2.336 2.336 0 0 0-2.428 2.427 2.27 2.27 0 0 0 .685 1.715 2.411 2.411 0 0 0 1.742.658h2.061a2.427 2.427 0 0 0 1.753-.658 2.271 2.271 0 0 0 .686-1.714z" class="cls-2" transform="translate(-845.528 -2649.789)"/>
        <path id="Path_2942" d="M1993.486 2997.5h-2.9v6.085h-1.273v-6.085h-2.913v-1.284h7.088z" class="cls-2" transform="translate(-1356.049 -2649.789)"/>
        <path id="Path_2943" d="M2272.693 3003.589h-1.887l-2.061-2.072h-3.945v-1.284h4.622a2.173 2.173 0 0 0 1.2-.312 1.178 1.178 0 0 0 .55-1.042q0-1.375-1.748-1.375h-4.208v6.085h-1.284v-7.369h5.287a3.91 3.91 0 0 1 2.3.616 2.563 2.563 0 0 1 .418 3.665 2.864 2.864 0 0 1-1.474.875z" class="cls-2" transform="translate(-1616.504 -2649.789)"/>
        <path id="Path_2944" d="M2578.732 3003.26l-1.657-.011-1.232-2.061h-4.3l.774-1.284h2.747l-1.278-2.117-3.323 5.472h-1.648l4-6.667a1.726 1.726 0 0 1 .421-.475 1 1 0 0 1 .583-.248.955.955 0 0 1 .582.238 1.7 1.7 0 0 1 .421.485z" class="cls-2" transform="translate(-1902.624 -2649.46)"/>
        <path id="Path_2945" d="M2902.6 2999.823a3.7 3.7 0 0 1-1.047 2.7 3.571 3.571 0 0 1-2.665 1.068h-4.154v-7.369h4.154a3.711 3.711 0 0 1 2.67.993 3.442 3.442 0 0 1 1.042 2.608zm-1.284.108a2.336 2.336 0 0 0-2.427-2.427h-2.881v4.8h2.881a2.412 2.412 0 0 0 1.742-.658 2.271 2.271 0 0 0 .688-1.715z" class="cls-2" transform="translate(-2208.487 -2649.789)"/>
        <path id="Path_2946" d="M3194.594 3003.589h-1.284v-7.369h1.284z" class="cls-2" transform="translate(-2488.683 -2649.789)"/>
        <path id="Path_2947" d="M3401.169 3002.952q0 .712-.487.712a1.226 1.226 0 0 1-.8-.439l-4.723-4.749v5.112h-1.273v-6.732a.73.73 0 0 1 .14-.448.468.468 0 0 1 .4-.189 1.074 1.074 0 0 1 .734.377l4.726 4.736v-5.114h1.284z" class="cls-2" transform="translate(-2676.915 -2649.789)"/>
        <path id="Path_2948" d="M3696.119 3003.589h-4.682a3.576 3.576 0 0 1-2.66-1.068 3.686 3.686 0 0 1-1.052-2.7 3.441 3.441 0 0 1 1.041-2.611 3.712 3.712 0 0 1 2.67-.993h4.165v1.284h-4.165a2.336 2.336 0 0 0-2.427 2.427 2.271 2.271 0 0 0 .685 1.715 2.412 2.412 0 0 0 1.742.658h3.4v-1.601h-3.5v-1.176h4.78z" class="cls-2" transform="translate(-2952.67 -2649.789)"/>
    </g>
</svg>
